<svg xmlns="http://www.w3.org/2000/svg" xmlns:xlink="http://www.w3.org/1999/xlink" width="75" height="75" viewBox="0 0 75 75" fill="none">
<path     fill="url(#linear_fill_44_1_0)"  d="M0 37.5Q0 36.5794 0.0451704 35.66Q0.0903408 34.7405 0.180573 33.8244Q0.270805 32.9082 0.405881 31.9976Q0.540957 31.087 0.720552 30.1841Q0.900147 29.2812 1.12383 28.3882Q1.34751 27.4953 1.61474 26.6143Q1.88197 25.7334 2.1921 24.8666Q2.50223 23.9999 2.85452 23.1494Q3.2068 22.2989 3.6004 21.4667Q3.994 20.6345 4.42795 19.8226Q4.86191 19.0107 5.33518 18.2211Q5.80845 17.4315 6.31989 16.6661Q6.83133 15.9007 7.37972 15.1613Q7.9281 14.4219 8.51211 13.7103Q9.09611 12.9986 9.71433 12.3165Q10.3326 11.6344 10.9835 10.9835Q11.6344 10.3326 12.3165 9.71433Q12.9986 9.09611 13.7103 8.51211Q14.4219 7.9281 15.1613 7.37972Q15.9007 6.83133 16.6661 6.31989Q17.4315 5.80845 18.2211 5.33518Q19.0107 4.86191 19.8226 4.42795Q20.6345 3.994 21.4667 3.6004Q22.2989 3.2068 23.1494 2.85452Q23.9999 2.50223 24.8666 2.1921Q25.7334 1.88197 26.6143 1.61474Q27.4953 1.34751 28.3882 1.12383Q29.2812 0.900147 30.1841 0.720552Q31.087 0.540957 31.9976 0.405881Q32.9082 0.270805 33.8244 0.180573Q34.7405 0.0903408 35.66 0.0451704Q36.5794 0 37.5 0Q38.4206 0 39.34 0.0451704Q40.2595 0.0903408 41.1756 0.180573Q42.0918 0.270805 43.0024 0.405881Q43.913 0.540957 44.8159 0.720552Q45.7188 0.900147 46.6118 1.12383Q47.5047 1.34751 48.3857 1.61474Q49.2666 1.88197 50.1334 2.1921Q51.0001 2.50223 51.8506 2.85452Q52.7011 3.2068 53.5333 3.6004Q54.3655 3.994 55.1774 4.42795Q55.9893 4.86191 56.7789 5.33518Q57.5685 5.80845 58.3339 6.31989Q59.0993 6.83133 59.8387 7.37972Q60.5781 7.9281 61.2897 8.51211Q62.0014 9.09611 62.6835 9.71433Q63.3656 10.3326 64.0165 10.9835Q64.6674 11.6344 65.2857 12.3165Q65.9039 12.9986 66.4879 13.7103Q67.0719 14.4219 67.6203 15.1613Q68.1687 15.9007 68.6801 16.6661Q69.1916 17.4315 69.6648 18.2211Q70.1381 19.0107 70.572 19.8226Q71.006 20.6345 71.3996 21.4667Q71.7932 22.2989 72.1455 23.1494Q72.4978 23.9999 72.8079 24.8666Q73.118 25.7334 73.3853 26.6143Q73.6525 27.4953 73.8762 28.3882Q74.0999 29.2812 74.2794 30.1841Q74.459 31.087 74.5941 31.9976Q74.7292 32.9082 74.8194 33.8244Q74.9097 34.7405 74.9548 35.66Q75 36.5794 75 37.5Q75 38.4206 74.9548 39.34Q74.9097 40.2595 74.8194 41.1756Q74.7292 42.0918 74.5941 43.0024Q74.459 43.913 74.2794 44.8159Q74.0999 45.7188 73.8762 46.6118Q73.6525 47.5047 73.3853 48.3857Q73.118 49.2666 72.8079 50.1334Q72.4978 51.0001 72.1455 51.8506Q71.7932 52.7011 71.3996 53.5333Q71.006 54.3655 70.572 55.1774Q70.1381 55.9893 69.6648 56.7789Q69.1915 57.5685 68.6801 58.3339Q68.1687 59.0993 67.6203 59.8387Q67.0719 60.5781 66.4879 61.2897Q65.9039 62.0014 65.2857 62.6835Q64.6674 63.3656 64.0165 64.0165Q63.3656 64.6674 62.6835 65.2857Q62.0014 65.9039 61.2897 66.4879Q60.5781 67.0719 59.8387 67.6203Q59.0993 68.1687 58.3339 68.6801Q57.5685 69.1916 56.7789 69.6648Q55.9893 70.1381 55.1774 70.572Q54.3655 71.006 53.5333 71.3996Q52.7011 71.7932 51.8506 72.1455Q51.0001 72.4978 50.1334 72.8079Q49.2666 73.118 48.3857 73.3853Q47.5047 73.6525 46.6118 73.8762Q45.7188 74.0999 44.8159 74.2794Q43.913 74.459 43.0024 74.5941Q42.0918 74.7292 41.1756 74.8194Q40.2595 74.9097 39.34 74.9548Q38.4206 75 37.5 75Q36.5794 75 35.66 74.9548Q34.7405 74.9097 33.8244 74.8194Q32.9082 74.7292 31.9976 74.5941Q31.087 74.459 30.1841 74.2794Q29.2812 74.0999 28.3882 73.8762Q27.4953 73.6525 26.6143 73.3853Q25.7334 73.118 24.8666 72.8079Q23.9999 72.4978 23.1494 72.1455Q22.2989 71.7932 21.4667 71.3996Q20.6345 71.006 19.8226 70.572Q19.0107 70.1381 18.2211 69.6648Q17.4315 69.1915 16.6661 68.6801Q15.9007 68.1687 15.1613 67.6203Q14.4219 67.0719 13.7103 66.4879Q12.9986 65.9039 12.3165 65.2857Q11.6344 64.6674 10.9835 64.0165Q10.3326 63.3656 9.71433 62.6835Q9.09611 62.0014 8.51211 61.2897Q7.9281 60.5781 7.37972 59.8387Q6.83133 59.0993 6.31989 58.3339Q5.80845 57.5685 5.33518 56.7789Q4.86191 55.9893 4.42795 55.1774Q3.994 54.3655 3.6004 53.5333Q3.2068 52.7011 2.85452 51.8506Q2.50223 51.0001 2.1921 50.1334Q1.88197 49.2666 1.61474 48.3857Q1.34751 47.5047 1.12383 46.6118Q0.900147 45.7188 0.720552 44.8159Q0.540957 43.913 0.405881 43.0024Q0.270805 42.0918 0.180573 41.1756Q0.0903408 40.2595 0.0451704 39.34Q0 38.4206 0 37.5Z">
</path>
<path d="M26.444 60.6006L13.5088 60.6006C13.4476 60.6006 13.3975 60.5505 13.3975 60.4892L13.3975 14.5107C13.3975 14.4495 13.4476 14.3994 13.5088 14.3994L26.444 14.3994C26.5052 14.3994 26.5553 14.4495 26.5553 14.5107L26.5553 60.4892C26.5553 60.5505 26.5052 60.6006 26.444 60.6006Z"   fill="#A4D4FF" >
</path>
<path d="M15.5906 22.1996L24.3627 22.1996L24.3627 25.4999L15.5906 25.4999L15.5906 22.1996Z"   fill="#FFFFFF" >
</path>
<path d="M43.2228 60.6006L30.2876 60.6006C30.2264 60.6006 30.1763 60.5505 30.1763 60.4892L30.1763 14.5107C30.1763 14.4495 30.2264 14.3994 30.2876 14.3994L43.2228 14.3994C43.2841 14.3994 43.3342 14.4495 43.3342 14.5107L43.3342 60.4892C43.3342 60.5505 43.2841 60.6006 43.2228 60.6006Z"   fill="#A4D4FF" >
</path>
<path d="M32.3689 22.1996L41.141 22.1996L41.141 25.4999L32.3689 25.4999L32.3689 22.1996Z"   fill="#FFFFFF" >
</path>
<path d="M59.7968 60.6005L50.7664 60.6005C49.7734 60.6005 48.9607 59.6553 48.9607 58.5003L46.2515 16.499C46.2515 15.344 47.0642 14.3988 48.0573 14.3988L57.0871 14.3988C58.0801 14.3988 58.8928 15.344 58.8928 16.499L61.6026 58.5003C61.6026 59.6553 60.7899 60.6005 59.7968 60.6005Z"   fill="#73B6FF" >
</path>
<path fill-rule="evenodd"  fill="rgba(166, 207, 255, 0.76)"  d="M0.0451704 35.66Q0 36.5794 0 37.5Q0 38.4206 0.0451704 39.34Q0.0903408 40.2595 0.180573 41.1756Q0.270805 42.0918 0.405881 43.0024Q0.540957 43.913 0.720552 44.8159Q0.900147 45.7188 1.12383 46.6118Q1.34751 47.5047 1.61474 48.3857Q1.88197 49.2666 2.1921 50.1334Q2.50223 51.0001 2.85452 51.8506Q3.2068 52.7011 3.6004 53.5333Q3.994 54.3655 4.42795 55.1774Q4.86191 55.9893 5.33518 56.7789Q5.80845 57.5685 6.31989 58.3339Q6.83133 59.0993 7.37972 59.8387Q7.9281 60.5781 8.51211 61.2897Q9.09611 62.0014 9.71433 62.6835Q10.3326 63.3656 10.9835 64.0165Q11.6344 64.6674 12.3165 65.2857Q12.9986 65.9039 13.7103 66.4879Q14.4219 67.0719 15.1613 67.6203Q15.9007 68.1687 16.6661 68.6801Q17.4315 69.1915 18.2211 69.6648Q19.0107 70.1381 19.8226 70.572Q20.6345 71.006 21.4667 71.3996Q22.2989 71.7932 23.1494 72.1455Q23.9999 72.4978 24.8666 72.8079Q25.7334 73.118 26.6143 73.3853Q27.4953 73.6525 28.3882 73.8762Q29.2812 74.0999 30.1841 74.2794Q31.087 74.459 31.9976 74.5941Q32.9082 74.7292 33.8244 74.8194Q34.7405 74.9097 35.66 74.9548Q36.5794 75 37.5 75Q38.4206 75 39.34 74.9548Q40.2595 74.9097 41.1756 74.8194Q42.0918 74.7292 43.0024 74.5941Q43.913 74.459 44.8159 74.2794Q45.7188 74.0999 46.6118 73.8762Q47.5047 73.6525 48.3857 73.3853Q49.2666 73.118 50.1334 72.8079Q51.0001 72.4978 51.8506 72.1455Q52.7011 71.7932 53.5333 71.3996Q54.3655 71.006 55.1774 70.572Q55.9893 70.1381 56.7789 69.6648Q57.5685 69.1916 58.3339 68.6801Q59.0993 68.1687 59.8387 67.6203Q60.5781 67.0719 61.2897 66.4879Q62.0014 65.9039 62.6835 65.2857Q63.3656 64.6674 64.0165 64.0165Q64.6674 63.3656 65.2857 62.6835Q65.9039 62.0014 66.4879 61.2897Q67.0719 60.5781 67.6203 59.8387Q68.1687 59.0993 68.6801 58.3339Q69.1915 57.5685 69.6648 56.7789Q70.1381 55.9893 70.572 55.1774Q71.006 54.3655 71.3996 53.5333Q71.7932 52.7011 72.1455 51.8506Q72.4978 51.0001 72.8079 50.1334Q73.118 49.2666 73.3853 48.3857Q73.6525 47.5047 73.8762 46.6118Q74.0999 45.7188 74.2794 44.8159Q74.459 43.913 74.5941 43.0024Q74.7292 42.0918 74.8194 41.1756Q74.9097 40.2595 74.9548 39.34Q75 38.4206 75 37.5Q75 36.5794 74.9548 35.66Q74.9097 34.7405 74.8194 33.8244Q74.7292 32.9082 74.5941 31.9976Q74.459 31.087 74.2794 30.1841Q74.0999 29.2812 73.8762 28.3882Q73.6525 27.4953 73.3853 26.6143Q73.118 25.7334 72.8079 24.8666Q72.4978 23.9999 72.1455 23.1494Q71.7932 22.2989 71.3996 21.4667Q71.006 20.6345 70.572 19.8226Q70.1381 19.0107 69.6648 18.2211Q69.1916 17.4315 68.6801 16.6661Q68.1687 15.9007 67.6203 15.1613Q67.0719 14.4219 66.4879 13.7103Q65.9039 12.9986 65.2857 12.3165Q64.6674 11.6344 64.0165 10.9835Q63.3656 10.3326 62.6835 9.71433Q62.0014 9.09611 61.2897 8.51211Q60.5781 7.9281 59.8387 7.37972Q59.0993 6.83133 58.3339 6.31989Q57.5685 5.80845 56.7789 5.33518Q55.9893 4.86191 55.1774 4.42795Q54.3655 3.994 53.5333 3.6004Q52.7011 3.2068 51.8506 2.85452Q51.0001 2.50223 50.1334 2.1921Q49.2666 1.88197 48.3857 1.61474Q47.5047 1.34751 46.6118 1.12383Q45.7188 0.900147 44.8159 0.720552Q43.913 0.540957 43.0024 0.405881Q42.0918 0.270805 41.1756 0.180573Q40.2595 0.0903408 39.34 0.0451704Q38.4206 0 37.5 0Q36.5794 0 35.66 0.0451704Q34.7405 0.0903408 33.8244 0.180573Q32.9082 0.270805 31.9976 0.405881Q31.087 0.540957 30.1841 0.720552Q29.2812 0.900147 28.3882 1.12383Q27.4953 1.34751 26.6143 1.61474Q25.7334 1.88197 24.8666 2.1921Q23.9999 2.50223 23.1494 2.85452Q22.2989 3.2068 21.4667 3.6004Q20.6345 3.994 19.8226 4.42795Q19.0107 4.86191 18.2211 5.33518Q17.4315 5.80845 16.6661 6.31989Q15.9007 6.83133 15.1613 7.37972Q14.4219 7.9281 13.7103 8.51211Q12.9986 9.09611 12.3165 9.71433Q11.6344 10.3326 10.9835 10.9835Q10.3326 11.6344 9.71433 12.3165Q9.09611 12.9986 8.51211 13.7103Q7.9281 14.4219 7.37972 15.1613Q6.83133 15.9007 6.31989 16.6661Q5.80845 17.4315 5.33518 18.2211Q4.86191 19.0107 4.42795 19.8226Q3.994 20.6345 3.6004 21.4667Q3.2068 22.2989 2.85452 23.1494Q2.50223 23.9999 2.1921 24.8666Q1.88197 25.7334 1.61474 26.6143Q1.34751 27.4953 1.12383 28.3882Q0.900147 29.2812 0.720552 30.1841Q0.540957 31.087 0.405881 31.9976Q0.270805 32.9082 0.180573 33.8244Q0.0903408 34.7405 0.0451704 35.66ZM1.04397 39.2909Q1 38.396 1 37.5Q1 36.604 1.04397 35.7091Q1.08793 34.8141 1.17576 33.9224Q1.26358 33.0306 1.39506 32.1443Q1.52653 31.258 1.70134 30.3792Q1.87614 29.5004 2.09386 28.6312Q2.31158 27.7621 2.57169 26.9046Q2.83179 26.0472 3.13365 25.2035Q3.43549 24.3599 3.7784 23.5321Q4.12129 22.7043 4.50439 21.8943Q4.8875 21.0842 5.30988 20.294Q5.73226 19.5037 6.19291 18.7352Q6.65356 17.9667 7.15135 17.2217Q7.64915 16.4767 8.18292 15.757Q8.71669 15.0373 9.28511 14.3447Q9.85356 13.652 10.4553 12.9881Q11.0571 12.3242 11.6906 11.6906Q12.3242 11.0571 12.9881 10.4553Q13.652 9.85356 14.3446 9.28516Q15.0373 8.71667 15.757 8.18293Q16.4767 7.64915 17.2217 7.15135Q17.9667 6.65356 18.7352 6.19291Q19.5037 5.73226 20.294 5.30988Q21.0842 4.8875 21.8943 4.50439Q22.7043 4.12129 23.5321 3.7784Q24.3599 3.43549 25.2035 3.13364Q26.0472 2.83179 26.9046 2.57168Q27.7621 2.31158 28.6312 2.09386Q29.5004 1.87614 30.3792 1.70134Q31.258 1.52653 32.1443 1.39506Q33.0306 1.26358 33.9224 1.17576Q34.8141 1.08793 35.7091 1.04397Q36.604 1 37.5 1Q38.396 1 39.2909 1.04397Q40.1859 1.08793 41.0776 1.17576Q41.9694 1.26358 42.8557 1.39506Q43.742 1.52653 44.6208 1.70134Q45.4996 1.87615 46.3688 2.09386Q47.2379 2.31157 48.0954 2.57169Q48.9528 2.83178 49.7965 3.13365Q50.6401 3.43551 51.4679 3.7784Q52.2957 4.12129 53.1057 4.50439Q53.9157 4.88747 54.706 5.30988Q55.4963 5.73227 56.2648 6.19291Q57.0333 6.65353 57.7783 7.15135Q58.5233 7.64915 59.243 8.18292Q59.9627 8.71669 60.6553 9.28511Q61.348 9.85355 62.0119 10.4553Q62.6758 11.057 63.3094 11.6906Q63.943 12.3242 64.5448 12.9881Q65.1464 13.6519 65.7149 14.3446Q66.2833 15.0373 66.8171 15.757Q67.3508 16.4766 67.8486 17.2217Q68.3465 17.9667 68.807 18.7352Q69.2678 19.5038 69.69 20.2939Q70.1125 21.0843 70.4956 21.8943Q70.8787 22.7043 71.2216 23.5321Q71.5645 24.3598 71.8663 25.2035Q72.1682 26.0471 72.4284 26.9047Q72.6884 27.7621 72.9062 28.6312Q73.1239 29.5003 73.2986 30.3791Q73.4734 31.258 73.6049 32.1444Q73.7364 33.0308 73.8242 33.9224Q73.9121 34.814 73.956 35.709Q74 36.6039 74 37.5Q74 38.3961 73.956 39.2909Q73.9121 40.186 73.8242 41.0775Q73.7364 41.9692 73.6049 42.8556Q73.4734 43.742 73.2986 44.6208Q73.1239 45.4997 72.9062 46.3688Q72.6884 47.238 72.4283 48.0955Q72.1682 48.9529 71.8663 49.7966Q71.5645 50.6402 71.2216 51.4679Q70.8787 52.2957 70.4956 53.1057Q70.1125 53.9157 69.6901 54.706Q69.2678 55.4962 68.8071 56.2648Q68.3464 57.0333 67.8486 57.7784Q67.3509 58.5233 66.8171 59.243Q66.2833 59.9627 65.7149 60.6553Q65.1464 61.3481 64.5447 62.0119Q63.943 62.6758 63.3094 63.3094Q62.6758 63.943 62.0119 64.5448Q61.348 65.1465 60.6554 65.7149Q59.9627 66.2833 59.243 66.8171Q58.5233 67.3509 57.7784 67.8486Q57.0333 68.3465 56.2648 68.807Q55.4962 69.2678 54.7061 69.69Q53.9157 70.1125 53.1057 70.4956Q52.2957 70.8787 51.4679 71.2216Q50.6402 71.5645 49.7965 71.8663Q48.9529 72.1682 48.0953 72.4284Q47.238 72.6884 46.3688 72.9062Q45.4997 73.1239 44.6209 73.2986Q43.742 73.4734 42.8556 73.6049Q41.9692 73.7364 41.0776 73.8242Q40.186 73.9121 39.291 73.956Q38.3961 74 37.5 74Q36.6039 74 35.7091 73.956Q34.814 73.9121 33.9225 73.8242Q33.0308 73.7364 32.1444 73.6049Q31.258 73.4734 30.3792 73.2986Q29.5003 73.1239 28.6312 72.9062Q27.7621 72.6884 26.9045 72.4283Q26.0471 72.1682 25.2034 71.8663Q24.3598 71.5645 23.5321 71.2216Q22.7043 70.8787 21.8943 70.4956Q21.0843 70.1125 20.294 69.6901Q19.5038 69.2678 18.7352 68.8071Q17.9667 68.3464 17.2217 67.8486Q16.4766 67.3508 15.757 66.8171Q15.0373 66.2833 14.3447 65.7149Q13.6519 65.1464 12.988 64.5447Q12.3242 63.943 11.6906 63.3094Q11.057 62.6758 10.4553 62.0119Q9.85355 61.348 9.28516 60.6554Q8.71669 59.9627 8.18293 59.243Q7.64915 58.5233 7.15135 57.7783Q6.65353 57.0333 6.19291 56.2648Q5.73227 55.4963 5.30988 54.706Q4.88748 53.9157 4.50439 53.1057Q4.12129 52.2957 3.7784 51.4679Q3.43551 50.6401 3.13364 49.7965Q2.83178 48.9528 2.57168 48.0954Q2.31157 47.2379 2.09386 46.3688Q1.87615 45.4996 1.70134 44.6208Q1.52653 43.742 1.39506 42.8557Q1.26358 41.9694 1.17576 41.0776Q1.08793 40.1859 1.04397 39.2909Z">
</path>
<defs>
<linearGradient id="linear_fill_44_1_0" x1="37.5" y1="75" x2="37.5" y2="0" gradientUnits="userSpaceOnUse">
<stop offset="0" stop-color="#ACE0F9"  />
<stop offset="1" stop-color="#FFF1EB"  />
</linearGradient>
</defs>
</svg>
